HIERARCHY
ROOT SpineBase
{
  OFFSET 0.000000 0.000000 0.000000
  CHANNELS 6 Xposition Yposition Zposition Zrotation Xrotation Yrotation
  JOINT SpineMid
  {
    OFFSET -0.000000 32.176504 -0.000000
    CHANNELS 3 Zrotation Xrotation Yrotation
    JOINT SpineShoulder
    {
      OFFSET -0.272638 23.986902 -0.819529
      CHANNELS 3 Zrotation Xrotation Yrotation
      JOINT Neck
      {
        OFFSET -0.184230 7.961616 -0.610723
        CHANNELS 3 Zrotation Xrotation Yrotation
        JOINT Head
        {
          OFFSET -6.489582 11.477390 5.943550
          CHANNELS 3 Zrotation Xrotation Yrotation
          End Site
          {
            OFFSET 0 0 0
          }
        }
      }
      JOINT ShoulderLeft
      {
        OFFSET -5.102100 -4.282266 13.322850
        CHANNELS 3 Zrotation Xrotation Yrotation
        JOINT ElbowLeft
        {
          OFFSET -5.676385 -22.217808 0.761853
          CHANNELS 3 Zrotation Xrotation Yrotation
          JOINT WristLeft
          {
            OFFSET -13.696971 -17.114687 -9.161195
            CHANNELS 3 Zrotation Xrotation Yrotation
            JOINT HandLeft
            {
              OFFSET -4.465336 -5.787647 -2.622165
              CHANNELS 3 Zrotation Xrotation Yrotation
              JOINT HandTipLeft
              {
                OFFSET 0.413349 5.000606 0.318589
                CHANNELS 3 Zrotation Xrotation Yrotation
                End Site
                {
                  OFFSET 0 0 0
                }
              }
              JOINT ThumbLeft
              {
                OFFSET 0.280420 -1.772190 -4.752002
                CHANNELS 3 Zrotation Xrotation Yrotation
                End Site
                {
                  OFFSET 0 0 0
                }
              }
            }
          }
        }
      }
      JOINT ShoulderRight
      {
        OFFSET 3.644002 -2.946935 -14.533016
        CHANNELS 3 Zrotation Xrotation Yrotation
        JOINT ElbowRight
        {
          OFFSET -11.763437 -21.827986 -3.107307
          CHANNELS 3 Zrotation Xrotation Yrotation
          JOINT WristRight
          {
            OFFSET -4.788390 -21.220506 5.625807
            CHANNELS 3 Zrotation Xrotation Yrotation
            JOINT HandRight
            {
              OFFSET 4.079707 -4.722083 5.655147
              CHANNELS 3 Zrotation Xrotation Yrotation
              JOINT HandTipRight
              {
                OFFSET 0.237472 -4.716732 0.866471
                CHANNELS 3 Zrotation Xrotation Yrotation
                End Site
                {
                  OFFSET 0 0 0
                }
              }
              JOINT ThumbRight
              {
                OFFSET -1.388455 4.264475 -1.588418
                CHANNELS 3 Zrotation Xrotation Yrotation
                End Site
                {
                  OFFSET 0 0 0
                }
              }
            }
          }
        }
      }
    }
  }
  JOINT HipLeft
  {
    OFFSET -3.366817 -0.170105 5.117187
    CHANNELS 3 Zrotation Xrotation Yrotation
    JOINT KneeLeft
    {
      OFFSET -1.354924 -31.735697 1.741054
      CHANNELS 3 Zrotation Xrotation Yrotation
      JOINT AnkleLeft
      {
        OFFSET 15.004120 -41.385256 2.159676
        CHANNELS 3 Zrotation Xrotation Yrotation
        JOINT FootLeft
        {
          OFFSET -2.413785 -7.914219 -4.429008
          CHANNELS 3 Zrotation Xrotation Yrotation
          End Site
          {
            OFFSET 0 0 0
          }
        }
      }
    }
  }
  JOINT HipRight
  {
    OFFSET 1.255022 2.353110 -12.807391
    CHANNELS 3 Zrotation Xrotation Yrotation
    JOINT KneeRight
    {
      OFFSET 4.298369 -36.992398 1.258756
      CHANNELS 3 Zrotation Xrotation Yrotation
      JOINT AnkleRight
      {
        OFFSET 7.946955 -40.216940 5.110411
        CHANNELS 3 Zrotation Xrotation Yrotation
        JOINT FootRight
        {
          OFFSET -10.894715 -3.692538 -6.194850
          CHANNELS 3 Zrotation Xrotation Yrotation
          End Site
          {
            OFFSET 0 0 0
          }
        }
      }
    }
  }
}
MOTION
Frames: 16
Frame Time: 0.033333
95.519775 82.165340 347.964488 0.000000 -0.000000 75.541270 0.000000 0.000000 -75.541270 -0.000000 0.000000 0.000000 -0.000000 0.000000 0.000000 0.000000 0.000000 0.000000 -0.000000 0.000000 0.000000 -0.000000 0.000000 0.000000 -0.000000 0.000000 0.000000 -0.000000 0.000000 0.000000 0.000000 0.000000 0.000000 0.000000 0.000000 0.000000 -0.000000 0.000000 0.000000 -0.000000 0.000000 0.000000 -0.000000 0.000000 0.000000 -0.000000 0.000000 0.000000 0.000000 0.000000 0.000000 0.000000 0.000000 0.000000 0.000000 0.000000 -75.541270 -0.000000 0.000000 0.000000 -0.000000 0.000000 0.000000 0.000000 0.000000 0.000000 0.000000 0.000000 -75.541270 -0.000000 0.000000 0.000000 -0.000000 0.000000 0.000000 0.000000 0.000000 0.000000
95.457350 82.322810 347.976194 -0.119916 0.087930 75.676534 -0.055529 -0.137942 -75.676509 -0.000000 0.000000 0.000000 -0.000000 0.000000 0.000000 0.000000 0.000000 0.000000 -0.000000 0.000000 0.000000 -0.000000 0.000000 0.000000 -0.000000 0.000000 0.000000 -0.000000 0.000000 0.000000 0.000000 0.000000 0.000000 0.000000 0.000000 0.000000 -0.000000 0.000000 0.000000 -4.322658 -0.473776 -1.047407 6.683298 -3.149299 0.611852 0.823995 16.572415 1.224668 0.000000 0.000000 0.000000 0.000000 0.000000 0.000000 -0.055529 -0.137942 -75.676509 -0.000000 0.000000 0.000000 5.498557 5.426665 -4.934932 0.000000 0.000000 0.000000 -0.055529 -0.137942 -75.676509 -0.000000 0.000000 0.000000 -0.000000 0.000000 0.000000 0.000000 0.000000 0.000000
95.387523 82.424051 347.969849 -0.220511 0.153464 75.820821 -0.094773 -0.251385 -75.820734 -0.000000 0.000000 0.000000 -0.598456 -0.649668 -0.061182 0.000000 0.000000 0.000000 -0.000000 0.000000 0.000000 -0.000000 0.000000 0.000000 -0.000000 0.000000 0.000000 -0.000000 0.000000 0.000000 0.000000 0.000000 0.000000 0.000000 0.000000 0.000000 0.645885 0.550498 -0.392645 -7.796582 -1.326470 -1.439311 10.875023 -4.739809 1.106356 2.007899 29.632261 1.407547 0.000000 0.000000 0.000000 0.000000 0.000000 0.000000 -0.094773 -0.251385 -75.820734 -0.563283 0.810446 0.268997 10.549468 8.872546 -9.318453 0.000000 0.000000 0.000000 -0.094773 -0.251385 -75.820734 -0.000000 0.000000 0.000000 -0.000000 0.000000 0.000000 0.000000 0.000000 0.000000
95.310296 82.469062 347.945454 -0.301434 0.196348 75.972610 -0.117429 -0.340038 -75.972442 -0.000000 0.000000 0.000000 -0.934846 -0.793365 0.029293 0.000000 0.000000 0.000000 -0.522871 -0.622513 0.138089 0.524401 0.621225 -0.143773 -0.000000 0.000000 0.000000 -0.000000 0.000000 0.000000 0.000000 0.000000 0.000000 0.000000 0.000000 0.000000 0.856642 0.669796 -0.489485 -9.430722 -1.564029 -1.742990 12.917110 -5.357309 1.417272 2.509245 36.465912 1.228788 0.000000 0.000000 0.000000 0.000000 0.000000 0.000000 -0.117429 -0.340038 -75.972442 -0.709233 1.026815 0.342551 13.948894 12.017877 -12.642659 0.000000 0.000000 0.000000 -0.117429 -0.340038 -75.972442 -0.035303 -0.952587 -0.192825 0.032101 0.952700 0.192265 0.000000 0.000000 0.000000
95.225668 82.457845 347.903008 -0.362453 0.216464 76.130609 -0.123268 -0.403774 -76.130359 -0.000000 0.000000 0.000000 -1.296189 -0.816607 0.202325 0.000000 0.000000 0.000000 -0.429837 -0.773971 0.179887 0.432304 0.772596 -0.185705 -0.000000 0.000000 0.000000 -0.000000 0.000000 0.000000 0.000000 0.000000 0.000000 0.000000 0.000000 0.000000 0.985609 0.680751 -0.514984 -9.627312 -1.547341 -1.745263 12.969653 -5.233486 1.541116 1.667979 36.053980 1.311111 0.000000 0.000000 0.000000 0.000000 0.000000 0.000000 -0.123268 -0.403774 -76.130359 -0.764102 1.117962 0.374001 15.997505 14.653170 -14.970739 0.000000 0.000000 0.000000 -0.123268 -0.403774 -76.130359 -0.001582 -1.097395 -0.216807 -0.002571 1.097393 0.216816 0.000000 0.000000 0.000000
95.133639 82.390400 347.842512 -0.403452 0.213826 76.293783 -0.112140 -0.442628 -76.293463 -0.000000 0.000000 0.000000 -1.683274 -0.719616 0.459589 0.000000 0.000000 0.000000 -0.207416 -0.896698 0.220204 1.078905 0.329849 -0.248484 0.035993 0.006852 0.033832 -0.906065 0.555992 -0.013943 0.000000 0.000000 0.000000 0.000000 0.000000 0.000000 1.030895 0.583604 -0.468452 -8.383569 -1.274924 -1.445126 11.032875 -4.367553 1.487353 -0.195029 28.685504 1.379906 0.000000 0.000000 0.000000 0.000000 0.000000 0.000000 -0.112140 -0.442628 -76.293463 -0.727709 1.084071 0.362961 16.716102 16.993232 -16.312004 0.000000 0.000000 0.000000 -0.112140 -0.442628 -76.293463 0.055287 -1.155639 -0.220478 -0.059746 1.155418 0.221638 0.000000 0.000000 0.000000
95.010437 82.225794 347.743005 -0.458220 0.243014 76.516508 -0.129473 -0.502252 -76.516103 -0.000000 0.000000 0.000000 -2.132630 -0.722511 0.692063 0.000000 0.000000 0.000000 0.236065 -1.011568 0.268689 1.764275 -0.813514 0.121914 0.075532 0.004191 0.074475 -2.065597 1.828417 -0.432736 0.000000 0.000000 0.000000 0.000000 0.000000 0.000000 0.965469 0.284608 -0.294452 -5.648274 -0.599498 -0.913113 7.034581 -2.984166 1.002877 -2.029550 16.675712 0.968985 0.000000 0.000000 0.000000 0.000000 0.000000 0.000000 -0.129473 -0.502252 -76.516103 -0.583851 0.877625 0.292848 16.455405 21.261252 -17.619249 0.000000 0.000000 0.000000 -0.129473 -0.502252 -76.516103 -0.000000 0.000000 0.000000 -2.090443 0.168458 2.852303 0.000000 0.000000 0.000000
94.881290 82.051636 347.652049 -0.483361 0.192891 76.669911 -0.076247 -0.514811 -76.669440 -0.000000 0.000000 0.000000 -2.629698 -0.369227 1.161756 0.000000 0.000000 0.000000 0.769651 -0.996075 0.287982 2.314417 -2.079693 0.581453 0.110383 0.003666 0.110976 -3.156140 3.110099 -0.855408 0.000000 0.000000 0.000000 0.000000 0.000000 0.000000 0.702303 0.333121 -0.282359 -0.700665 -0.336553 0.278259 -0.267703 0.969187 0.525405 -2.996082 -0.728037 -1.158000 0.000000 0.000000 0.000000 0.000000 0.000000 0.000000 -0.076247 -0.514811 -76.669440 -0.000000 0.000000 0.000000 10.898240 21.720846 -13.770109 0.000000 0.000000 0.000000 -0.605981 -1.319884 -76.736819 -0.399682 -0.197739 -0.082292 -0.263677 0.897637 0.146150 0.000000 0.000000 0.000000
94.771502 81.821702 347.542574 -0.440131 0.077196 76.802125 0.025333 -0.446131 -76.801730 -0.000000 0.000000 0.000000 -3.354392 0.329087 1.962660 0.000000 0.000000 0.000000 1.364445 -0.980324 0.309781 2.735850 -3.281760 1.057257 0.139812 0.006169 0.142700 -4.155659 4.339947 -1.252262 0.000000 0.000000 0.000000 0.000000 0.000000 0.000000 -0.000000 0.000000 0.000000 4.543723 0.376393 1.116291 -8.623842 6.504420 -0.050500 -7.655572 -18.768465 -5.886320 0.000000 0.000000 0.000000 0.000000 0.000000 0.000000 0.025333 -0.446131 -76.801730 -0.000000 0.000000 0.000000 6.725465 21.067599 -10.575290 0.000000 0.000000 0.000000 -0.626700 -1.472977 -76.884603 -0.677124 -0.540729 -0.178053 2.437451 0.831397 -2.663440 0.000000 0.000000 0.000000
94.685537 81.569209 347.432149 -0.350317 -0.101289 76.965878 0.177688 -0.318448 -76.965694 -0.000000 0.000000 0.000000 -3.700902 1.321876 2.740509 0.000000 0.000000 0.000000 1.930902 -1.079168 0.361565 2.998126 -4.141442 1.422656 0.161671 0.011112 0.166819 -4.957283 5.341154 -1.559941 0.000000 0.000000 0.000000 0.000000 0.000000 0.000000 0.451999 -0.701616 0.317490 8.313147 1.899166 1.570943 -18.405966 17.421587 4.220706 -2.773319 -33.995652 -11.072251 0.000000 0.000000 0.000000 0.000000 0.000000 0.000000 0.826153 -1.000720 -76.934125 -0.811179 -0.477435 -0.027484 3.995951 20.042453 -8.365048 0.000000 0.000000 0.000000 -0.579207 -1.610132 -77.060814 -1.049103 -0.805114 -0.264485 4.247589 0.831125 -4.519647 0.000000 0.000000 0.000000
94.648345 81.340674 347.323170 -0.208616 -0.324234 77.117027 0.362585 -0.131074 -77.117202 0.203473 -0.949436 -0.004673 -3.801766 3.174349 3.283265 0.000000 0.000000 0.000000 2.188301 -0.380314 0.420054 3.052739 -4.482373 1.585798 0.174447 0.015532 0.181377 -5.454527 5.959550 -1.739750 0.000000 0.000000 0.000000 0.000000 0.000000 0.000000 0.326286 -0.537844 0.735475 16.930056 4.869527 2.259529 -32.322652 23.855779 3.301254 1.946464 -42.242973 -11.177451 0.000000 0.000000 0.000000 0.000000 0.000000 0.000000 0.877305 -1.050212 -77.069091 -1.010996 -0.295998 -0.045416 -0.296655 16.770467 -4.559635 0.000000 0.000000 0.000000 -0.482264 -1.658407 -77.221233 -1.334882 -0.888438 -0.304687 5.388860 0.708549 -5.586257 0.000000 0.000000 0.000000
94.652620 81.106174 347.280693 -0.039594 -0.630566 77.276749 -0.343055 -0.336580 -77.284034 0.154922 -0.236520 0.002597 -3.576696 4.266760 3.519722 0.000000 0.000000 0.000000 2.335330 -0.474782 0.529446 2.828848 -4.163690 1.477103 0.176569 0.016827 0.184147 -5.546354 6.061120 -1.763654 0.000000 0.000000 0.000000 0.000000 0.000000 0.000000 0.411177 -0.896745 1.069626 23.180126 6.937484 2.445235 -45.003632 34.414548 10.122704 12.695002 -54.867217 -9.268470 0.000000 0.000000 0.000000 0.000000 0.000000 0.000000 0.772646 -1.072306 -77.206847 -1.176410 0.114476 -0.068227 -6.851057 10.573218 1.158197 0.000000 0.000000 0.000000 -0.240994 -1.635547 -77.380213 -1.667781 -1.219633 -0.395568 5.910626 0.910796 -5.709702 0.000000 0.000000 0.000000
94.763253 81.159480 347.169019 0.244580 -0.832026 77.372105 -0.435704 -0.287391 -77.372046 0.124800 -0.239563 0.006486 -3.233897 5.065027 3.514390 0.000000 0.000000 0.000000 2.394277 -0.863167 0.707557 2.149008 -3.017410 1.054009 0.165440 0.013127 0.172231 -5.135100 5.558362 -1.622354 0.000000 0.000000 0.000000 0.000000 0.000000 0.000000 0.477074 -1.204522 1.352093 32.932446 9.982781 2.471053 -54.037097 35.167426 5.498703 22.108496 -49.061973 -0.849595 0.000000 0.000000 0.000000 0.000000 0.000000 0.000000 0.176800 -0.987913 -77.270179 -1.245743 0.877669 -0.096271 -9.782873 4.662347 4.254522 0.000000 0.000000 0.000000 -0.182363 -1.334901 -77.480398 -1.736473 -1.457625 -0.456116 5.675574 1.223050 -4.994527 0.000000 0.000000 0.000000
94.853917 81.227607 346.988743 0.461527 -0.878637 77.500361 -0.542144 -0.255971 -77.493034 0.111454 -0.282250 0.010360 -2.720329 5.400028 3.209743 0.000000 0.000000 0.000000 2.441282 -0.813072 0.737798 1.950290 -2.881036 1.007795 0.165449 0.013130 0.172223 -5.135119 5.558434 -1.622394 0.000000 0.000000 0.000000 0.000000 0.000000 0.000000 0.502045 -1.317281 1.485663 41.061983 12.022854 2.448895 -58.772935 33.942555 2.384837 30.206181 -42.170541 5.825951 0.000000 0.000000 0.000000 0.000000 0.000000 0.000000 -0.672857 -1.095268 -77.355097 -1.163745 2.507842 0.138292 -8.409188 4.113258 2.956837 0.000000 0.000000 0.000000 -0.356638 -1.247899 -77.626126 -1.815543 -1.236397 -0.424791 4.651927 1.383062 -3.503753 0.000000 0.000000 0.000000
94.928075 81.354096 346.752461 0.629979 -0.770154 77.562626 -0.632122 -0.194921 -77.549085 0.111477 -0.363286 0.013529 -2.163607 5.152097 2.660508 0.000000 0.000000 0.000000 2.425773 -0.777414 0.736340 1.875414 -2.868779 1.003066 0.165611 0.012862 0.172358 -5.135133 5.558522 -1.622447 0.000000 0.000000 0.000000 0.000000 0.000000 0.000000 0.733916 -1.363914 1.487509 45.818753 13.279522 2.368958 -57.207942 26.026720 -1.952193 36.867215 -26.346505 10.091414 0.000000 0.000000 0.000000 0.000000 0.000000 0.000000 -1.738228 -1.391886 -77.368510 -1.606074 2.772672 -0.167768 -6.511563 2.600552 2.914411 0.000000 0.000000 0.000000 -0.670419 -1.200139 -77.706206 -1.764409 -0.820017 -0.342406 2.892435 1.456718 -1.287949 0.000000 0.000000 0.000000
94.994350 81.519293 346.490838 0.772504 -0.569400 77.516432 -0.701422 -0.119426 -77.497721 0.126774 -0.462288 0.017372 -1.879465 4.507694 2.115711 0.000000 0.000000 0.000000 2.378562 -0.831038 0.734942 1.853537 -2.864894 1.001521 0.165996 0.012316 0.172601 -5.135129 5.558537 -1.622460 0.000000 0.000000 0.000000 0.000000 0.000000 0.000000 0.924787 -1.424174 1.452317 50.439833 14.083134 2.572513 -59.511521 25.350328 -1.759733 43.251079 -23.626217 12.681038 0.000000 0.000000 0.000000 0.000000 0.000000 0.000000 -2.614218 -1.547349 -77.291483 -2.238896 4.389533 0.154574 -5.827486 -0.249186 2.931405 0.000000 0.000000 0.000000 -1.076188 -1.122337 -77.679167 -1.542335 -0.126523 -0.193989 0.521069 1.298879 1.379974 0.000000 0.000000 0.000000
